<svg width="112" height="32" viewBox="0 0 112 32" fill="none" xmlns="http://www.w3.org/2000/svg">
<g clip-path="url(#clip0_128_89)">
<path d="M31.763 15.626C31.445 15.232 23.882 6 16 6C8.118 6 0.555 15.232 0.237 15.626C0.084 15.815 0 16.051 0 16.295C0 16.539 0.084 16.775 0.237 16.965C0.555 17.358 8.118 26.589 16 26.589C23.882 26.589 31.445 17.358 31.763 16.965C31.916 16.775 32 16.539 32 16.295C32 16.051 31.916 15.815 31.763 15.626ZM8.966 13.079C8.966 11.955 9.88 11.041 11.004 11.041C12.128 11.041 13.043 11.955 13.043 13.079C13.043 14.203 12.128 15.118 11.004 15.118C9.88 15.118 8.966 14.203 8.966 13.079ZM16 21.764C13.302 21.764 11.056 19.8 10.612 17.227C13.055 17.457 15.171 15.53 15.171 13.079C15.171 13.072 15.171 13.066 15.171 13.059C15.168 12.337 14.976 11.629 14.615 11.004C15.067 10.885 15.533 10.826 16 10.826C19.016 10.826 21.469 13.279 21.469 16.295C21.469 19.311 19.016 21.764 16 21.764Z" fill="#AFFC00"/>
</g>
<path d="M41.3322 12.44C41.3322 9.96 43.3322 8.28 46.3122 8.28C49.0722 8.28 50.8522 9.82 51.0122 12.32H49.0322C48.9322 10.88 47.9122 10.04 46.2922 10.04C44.4722 10.04 43.2922 10.96 43.2922 12.38C43.2922 13.54 43.9522 14.24 45.3122 14.56L47.6922 15.12C50.0522 15.66 51.2522 16.94 51.2522 18.98C51.2522 21.58 49.2322 23.24 46.1522 23.24C43.2122 23.24 41.2522 21.7 41.1322 19.22H43.1322C43.1722 20.6 44.3322 21.48 46.1522 21.48C48.0722 21.48 49.2922 20.58 49.2922 19.14C49.2922 18 48.6722 17.28 47.2922 16.96L44.9122 16.42C42.5522 15.88 41.3322 14.52 41.3322 12.44ZM54.3152 23H52.2752L57.5552 8.54H59.7352L65.0352 23H62.9752L61.6752 19.4H55.5952L54.3152 23ZM58.3952 11.66L56.1952 17.7H61.0952L58.8752 11.66C58.7752 11.38 58.6752 11.04 58.6352 10.82C58.5952 11.02 58.4952 11.36 58.3952 11.66ZM67.948 23H65.908L71.188 8.54H73.368L78.668 23H76.608L75.308 19.4H69.228L67.948 23ZM72.028 11.66L69.828 17.7H74.728L72.508 11.66C72.408 11.38 72.308 11.04 72.268 10.82C72.228 11.02 72.128 11.36 72.028 11.66ZM77.8816 10.34V8.54H88.5416V10.34H84.2016V23H82.2416V10.34H77.8816ZM92.472 23H90.512V8.54H92.472V14.76H99.632V8.54H101.592V23H99.632V16.58H92.472V23ZM106.906 8.54V23H104.946V8.54H106.906Z" fill="#AFFC00"/>
<defs>
<clipPath id="clip0_128_89">
<rect width="32" height="32" fill="white"/>
</clipPath>
</defs>
</svg>
