<svg width="61" height="33" viewBox="0 0 61 33" fill="none" xmlns="http://www.w3.org/2000/svg">
<g id="svg135548140">
<g id="ss135548140_1">
<path id="Vector" d="M47.3626 15.7202C47.0446 15.3272 39.4816 6.09521 31.5996 6.09521C23.7176 6.09521 16.1546 15.3272 15.8366 15.7202C15.6836 15.9092 15.5996 16.1462 15.5996 16.3902C15.5996 16.6332 15.6836 16.8702 15.8366 17.0592C16.1546 17.4522 23.7176 26.6842 31.5996 26.6842C39.4816 26.6842 47.0446 17.4522 47.3626 17.0592C47.5156 16.8702 47.5996 16.6332 47.5996 16.3902C47.5996 16.1462 47.5156 15.9092 47.3626 15.7202ZM24.5656 13.1742C24.5656 12.0502 25.4796 11.1352 26.6036 11.1352C27.7276 11.1352 28.6426 12.0502 28.6426 13.1742C28.6426 14.2982 27.7276 15.2122 26.6036 15.2122C25.4796 15.2122 24.5656 14.2982 24.5656 13.1742ZM31.5996 21.8592C28.9016 21.8592 26.6556 19.8952 26.2116 17.3222C28.6546 17.5512 30.7706 15.6242 30.7706 13.1742C30.7706 13.1672 30.7706 13.1602 30.7706 13.1532C30.7676 12.4322 30.5756 11.7232 30.2146 11.0982C30.6666 10.9802 31.1326 10.9202 31.5996 10.9202C34.6156 10.9202 37.0686 13.3742 37.0686 16.3902C37.0686 19.4052 34.6156 21.8592 31.5996 21.8592Z" fill="#AFFC00"/>
</g>
</g>
</svg>
